<?xml version="1.0" encoding="utf-8"?>
<!-- Generator: Adobe Illustrator 27.5.0, SVG Export Plug-In . SVG Version: 6.00 Build 0)  -->
<svg version="1.1" id="Layer_1" xmlns="http://www.w3.org/2000/svg" xmlns:xlink="http://www.w3.org/1999/xlink" x="0px" y="0px"
	 viewBox="0 0 1000 718.773" style="enable-background:new 0 0 1000 718.773; transform: rotate(180deg);" xml:space="preserve">
<g>
	<rect x="3.274" y="0" style="fill-rule:evenodd;clip-rule:evenodd;fill:#FFFFFF;" width="996.726" height="718.773"/>
	<path style="fill-rule:evenodd;clip-rule:evenodd;fill:#FFFFFF;" d="M1000,442.772c-80.992-17.595-157.874-20.52-229.696-7.046
		c-99.297,18.639-195.384,72.847-282.201,107.863c-91.612,36.938-162.963,62.734-238.435,47.978
		c-84.789-16.586-155.4-81.474-226.787-140.781c-6.64-5.52-13.174-10.493-19.607-14.964v20.402c1.941,2.094,3.883,4.248,5.834,6.473
		c72.097,61.005,145.81,134.187,231.628,151.973c75.938,15.749,162.157-24.143,254.63-58.815
		c86.644-32.482,176.923-69.161,276.113-82.721c71.665-9.804,148.086-2.778,228.52,18.71V442.772z"/>
	<path style="fill-rule:evenodd;clip-rule:evenodd;fill:#FFFFFF;" d="M1000,391.402c-57.832-8.572-113.343-9.586-166.293-1.734
		c-107.747,15.967-205.77,59.398-299.167,102.125c-108.907,49.833-207.621,111.452-301.413,105.369
		c-84.272-5.46-155.8-75.361-229.853-141.628v-1.668c74.012,67.388,145.622,137.852,230.153,144.223
		c94.41,7.122,193.99-53.63,304.18-100.68c93.574-39.944,192.181-79.385,300.089-90.588c51.881-5.383,106.028-2.2,162.304,8.186
		V391.402z"/>
	<linearGradient id="SVGID_1_" gradientUnits="userSpaceOnUse" x1="3.2743" y1="578.9059" x2="1000" y2="578.9059">
		<stop  offset="0" style="stop-color:#166534"/>
		<stop  offset="1" style="stop-color:#69bc87"/>
	</linearGradient>
	<path style="fill-rule:evenodd;clip-rule:evenodd;fill:url(#SVGID_1_);" d="M495.367,555.855
		c-92.473,34.672-178.692,74.565-254.63,58.815C154.919,596.884,81.205,523.703,9.108,462.697c-1.946-2.225-3.898-4.384-5.834-6.478
		v47.07c1.937,2.56,3.888,5.216,5.834,7.933c72.097,74.671,145.81,164.265,231.628,186.037
		c75.938,19.277,162.157-29.558,254.63-71.995c86.644-39.772,176.923-84.672,276.113-101.279
		c71.665-11.983,148.086-3.381,228.52,22.912v-55.054c-80.434-21.488-156.855-28.513-228.52-18.71
		C672.29,486.694,582.011,523.373,495.367,555.855z"/>
	<path style="fill-rule:evenodd;clip-rule:evenodd;fill:#39B54A;" d="M271.845,718.773h25.766
		c142.53-24.641,234.654-90.253,331.699-110.58c182.458-38.226,230.644-12.956,370.69,9.454v-13.123
		c-98.521-15.44-150.59-33.572-240.083-30.47c-76.37,2.646-142.383,26.141-201.893,50.553
		C479.014,657.007,394.134,703.525,271.845,718.773z"/>
	<path style="fill-rule:evenodd;clip-rule:evenodd;fill:#FFFFFF;" d="M480.352,490.217c-90.623,38.93-174.738,82.782-251.376,70.576
		C147.467,547.826,74.2,485.356,3.274,430.048v11.284c29.091,26.592,58.648,53.721,89.473,77.079
		c45.56,28.351,92.464,51.034,141.258,56.114c77.226,8.059,158.654-40.258,246.865-84.009l7.897-3.918L480.352,490.217z"/>
	<path style="fill-rule:evenodd;clip-rule:evenodd;fill:#FFFFFF;" d="M495.367,547.796c-92.473,34.671-178.692,74.57-254.63,58.82
		C154.919,588.824,81.205,515.648,9.108,454.643c-1.946-2.225-3.898-4.39-5.834-6.484v10.559
		c33.567,33.451,67.468,69.085,103.524,99.236c44.085,30.429,89.792,55.267,138.267,62.612
		c76.74,11.633,160.499-32.847,250.804-72.446l8.08-3.548L495.367,547.796L495.367,547.796z M514.016,574.322
		c84.698-25.178,173.04-51.597,267.48-57.649c69.891-4.476,142.88,6.498,218.504,30.895V483.79l-2.494-0.659l2.195,37.577
		c-76.932-20.286-150.443-27.312-219.964-19.075C685.038,512.85,597.73,544.41,514.016,574.322z"/>
	<path style="fill-rule:evenodd;clip-rule:evenodd;fill:#FFFFFF;" d="M1000,561.842c-77.565-28.153-149.525-43.639-215.772-40.374
		c-91.394,4.527-172.64,38.859-247.904,74.453c-84.455,39.944-162.801,92.018-237.183,75.457
		C206.014,650.636,129.71,543.766,47.846,487.713c-15.749-10.787-30.627-17.873-44.571-21.969v1.151
		c13.078,3.751,27.195,9.423,42.458,17.275c76.815,66.47,160.013,166.481,254.316,187.964
		c75.031,17.092,154.306-35.128,240.032-73.11c75.224-33.329,157.073-64.26,248.705-65.218
		c65.167-0.689,135.54,16.535,211.215,45.672V561.842z"/>
	<path style="fill-rule:evenodd;clip-rule:evenodd;fill:#FFFFFF;" d="M2.362,594.765c46.696,51.937,98.445,92.316,166.628,102.459
		c72.73,10.817,149.515-16.844,220.202-51.557c63.692-31.28,121.712-67.828,173.978-88.443
		c31.367-12.374,58.324-14.163,81.378-8.739v-0.634c-21.843-3.812-47.507-2.514-77.824,5.226
		c-49.778,27.778-108.644,65.628-173.39,96.402c-72.076,34.256-150.848,58.897-224.957,48.931
		c-67.225-9.043-119.02-47.122-166.015-96.544V594.765z"/>
	<path style="fill-rule:evenodd;clip-rule:evenodd;fill:#FFFFFF;" d="M3.898,495.291c28.792,55.81,66.115,102.52,120.348,130.121
		c69.531,35.361,159.541,26.419,247.341,4.172c78.853-19.982,154.762-49.641,219.64-66.378c20.464-5.282,38.965-7.847,55.708-8.11
		l0.918-4.268c-15.694,0.695-32.913,3.392-51.815,8.4c-65.781,17.417-142.343,47.876-221.916,68.756
		c-89.204,23.419-180.132,33.43-251.295-1.292C69.171,600.513,31.666,556.56,2.073,503.787L3.898,495.291z"/>
	<path style="fill-rule:evenodd;clip-rule:evenodd;fill:#FFFFFF;" d="M996.726,481.027c-88.368-16.246-168.59-13.712-238.628,12.074
		c-77.92,28.68-144.841,77.475-209.567,122.543c-70.302,48.951-134.48,102.521-199.728,100.513
		c-74.276-2.276-140.624-78.133-210.905-124.089C76.81,552.125,31.235,559.824,0,585.088v-3.067
		c31.118-24.534,76.389-31.494,137.076,8.546c70.55,46.564,137.182,123.197,211.909,125.888
		c65.466,2.362,129.872-50.969,200.544-99.129c64.893-44.237,132.25-91.805,210.454-118.716
		c69.678-23.977,149.267-24.94,236.742-7.629V481.027z"/>
	<path style="fill-rule:evenodd;clip-rule:evenodd;fill:#00A651;" d="M1000,491.591c-84.013-17.99-160.717-19.069-228.327,2.225
		c-75.959,23.931-142.348,67.494-204.797,111.143c-72.892,48.277-136.691,105.314-203.764,108.563
		c-73.465,3.563-142.661-69.181-215.356-120.074C83.293,548.313,35.751,552.064,3.274,575.66v-2.19
		c32.401-23.084,79.679-26.359,143.731,18.75c72.969,51.389,142.454,124.789,216.279,121.549
		c67.291-2.965,131.718-58.856,204.585-107.472c63.221-42.184,129.335-85.58,205.461-108.223
		c67.271-20.017,143.452-17.686,226.67,1.156V491.591z"/>
	<path style="fill-rule:evenodd;clip-rule:evenodd;fill:#46c883;" d="M1000,448.879c-82.492-19.531-158.015-22.831-224.921-4.04
		c-75.984,21.335-142.342,63.864-205.446,105.465c-73.581,48.511-138.698,105.643-206.754,108.233
		c-74.955,2.859-145.389-73.262-219.553-125.817C81.762,489.097,35.406,491.393,3.274,512.987v-6.397
		c32.026-19.901,77.642-20.717,137.841,22.658c74.98,54.031,146.103,132.017,222.067,130.004
		c68.599-1.804,134.43-58.314,209.197-104.7c63.495-39.391,130.659-78.772,207.215-96.311
		c66.024-15.126,139.914-8.785,220.405,12.804V448.879z"/>
	<path style="fill-rule:evenodd;clip-rule:evenodd;fill:#FFFFFF;" d="M3.274,685.611c80.891,25.026,155.157,35.468,221.956,24.453
		c79.892-13.174,150.077-50.432,216.217-87.968c75.488-42.843,143.863-96.407,212.305-89.716
		c80.638,7.877,150.939,97.005,226.584,149.951c49.879,34.91,90.041,33.942,119.664,17.579v5.196
		c-28.259,12.429-66.236,9.586-117.311-18.77c-71.23-62.536-147.488-145.688-229.205-154.574
		c-68.969-7.497-138.247,45.702-214.925,86.756c-66.576,35.64-137.821,69.992-218.104,79.588
		c-65.836,7.872-138.469-4.922-217.181-31.519V685.611z"/>
	<path style="fill-rule:evenodd;clip-rule:evenodd;fill:#46c883;" d="M1000,598.374c-79.005-30.647-151.847-47.983-218.413-44.698
		c-83.892,4.151-158.467,35.66-227.552,68.335c-77.515,36.664-149.429,84.465-217.703,69.263
		c-85.484-19.044-155.522-117.135-230.659-168.585c-41.024-28.092-75.594-28.878-102.399-17.067v-3.285
		c25.457-8.232,58.217-4.623,100.457,17.098C174.236,580.45,250.6,672.25,337.164,691.968
		c68.867,15.689,141.633-32.244,220.324-67.108c69.045-30.591,144.172-58.983,228.282-59.865
		C851.388,564.3,922.754,583.4,1000,615.005V598.374z"/>
	<path style="fill-rule:evenodd;clip-rule:evenodd;fill:#00A651;" d="M8.906,491.591c83.385-17.99,159.521-19.069,226.624,2.225
		c75.391,23.931,141.283,67.494,203.267,111.143c72.345,48.277,135.666,105.314,202.243,108.563
		c72.907,3.563,141.592-69.181,213.739-120.074c63.986-45.134,111.168-41.383,143.407-17.787v-2.19
		c-32.162-23.084-79.086-26.359-142.661,18.75c-72.421,51.389-141.39,124.789-214.657,121.549
		c-66.789-2.965-130.735-58.856-203.059-107.472c-62.744-42.184-128.367-85.58-203.926-108.223
		c-66.768-20.017-142.377-17.686-224.977,1.156V491.591z"/>
	<path style="fill-rule:evenodd;clip-rule:evenodd;fill:#00A651;" d="M260.911,694.832h2.21c8.936-5.768,18.537-11.704,29.04-17.762
		l0,0c2.58-1.617,5.064-3.153,7.477-4.612c-0.882,0.187-1.759,0.37-2.636,0.547c-1.901,1.161-3.842,2.373-5.84,3.629l0,0
		C280.087,682.859,270.116,688.942,260.911,694.832L260.911,694.832z M994.51,694.832h2.266
		c-13.666-10.381-28.427-24.23-44.592-42.139l0,0c-18.993-18.857-35.285-35.863-50.355-50.893
		c-14.609-14.573-28.148-27.387-40.4-38.6c-22.035-18.664-39.731-33.288-58.988-42.402c-18.304-8.663-38.312-12.323-63.636-10.488
		l0,0c-32.989,3.721-70.302,24.782-105.389,47.988c-48.155,40.785-98.663,97.03-147.411,117.489l0,0
		c-31.864,10.447-54.892,2.488-76.658-7.563c-13.727-5.997-25.969-12.718-37.313-16.281c-0.766-0.512-1.561-0.988-2.382-1.419
		l-2.788,1.089c1.095,0.487,2.154,1.055,3.168,1.683c11.623,3.544,24.27,10.022,37.323,16.409
		c21.771,10.087,45.22,18.188,77.373,7.857l0,0c50.629-21.442,101.659-78.311,150.762-119.406
		c35.123-22.78,70.794-43.36,102.819-46.933c24.772-1.708,44.628,1.901,62.8,10.467c19.1,8.997,36.659,23.459,58.683,41.925
		c12.242,11.151,25.669,23.829,40.238,38.316c15.101,15.014,31.362,32.001,50.356,50.923
		C966.347,670.496,980.951,684.304,994.51,694.832z"/>
</g>
</svg>
